<svg xmlns="http://www.w3.org/2000/svg" xml:space="preserve" width="1500" height="1500" data-id="lg_lXUncchGbJUQr8pPq5" data-version="1" viewBox="0 0 1500 1500"><path stroke="transparent" d="M0 0h1500v1500H0z"/><g data-padding="20"><g transform="translate(-571.429 -573.31)scale(1.72194)"><rect width="560" height="140.12" x="86.907" y="298.205" fill="none" rx="0" ry="0" transform="translate(400.5 580.51)"/><path fill="#fff" d="M504.897 977.935q-10.48-11.04-10.48-27.9 0-16.87 10.48-27.9 10.48-11.04 26.97-11.04t26.97 11.04q10.48 11.03 10.48 27.96t-10.48 27.9-26.97 10.97-26.97-11.03m4.78-51.65q-8.56 9.36-8.56 23.75 0 14.38 8.56 23.74 8.55 9.37 22.19 9.37t22.2-9.37q8.55-9.36 8.55-23.74 0-14.39-8.55-23.75-8.56-9.36-22.2-9.36t-22.19 9.36m139.74 55.63h4.59q1.24 0 2.05.86.8.87.8 2.11t-.8 2.05q-.81.8-2.05.8h-4.59q-5.45 0-7.5-2.35-2.04-2.36-2.04-5.33v-27.28h-45.51v33.35q0 1.24-.99 2.05-1 .8-2.36.8t-2.36-.8q-.99-.81-.99-2.05v-67.95h-7.19q-1.24 0-2.05-.81-.8-.8-.8-2.04t.8-2.11q.81-.87 2.05-.87h10.66q1.24 0 2.24.87.99.87.99 2.11v31.62h45.51v-28.77h-7.32q-1.24 0-2.05-.81-.8-.8-.8-2.04t.8-2.11q.81-.87 2.05-.87h10.79q1.24 0 2.23.87t.99 2.11v64.73q0 1.86 2.85 1.86m42.79 4.21v-67.95h-24.55v7.32q0 1.24-.99 2.04-.99.81-2.36.81-1.36 0-2.35-.81-.99-.8-.99-2.04v-10.17q0-1.24.99-2.11t2.23-.87h62.62q1.36 0 2.36.87.99.87.99 2.11v10.17q0 1.24-.99 2.04-1 .81-2.36.81t-2.36-.81q-.99-.8-.99-2.04v-7.32h-24.55v67.95q0 1.24-.99 2.05-.99.8-2.36.8-1.36 0-2.35-.8-1-.81-1-2.05m55.86-8.19q-10.48-11.04-10.48-27.9 0-16.87 10.48-27.9 10.47-11.04 26.97-11.04 16.49 0 26.97 11.04 10.47 11.03 10.47 27.96t-10.47 27.9q-10.48 10.97-26.97 10.97-16.5 0-26.97-11.03m4.77-51.65q-8.56 9.36-8.56 23.75 0 14.38 8.56 23.74 8.56 9.37 22.2 9.37t22.19-9.37q8.56-9.36 8.56-23.74 0-14.39-8.56-23.75-8.55-9.36-22.19-9.36t-22.2 9.36m78 59.84v-67.95h-7.32q-1.24 0-2.05-.81-.8-.8-.8-2.04t.8-2.11q.81-.87 2.05-.87h38.94q27.03 0 27.03 24.37 0 24.36-27.03 24.36h-24.93v25.05q0 1.24-.99 2.05-.99.8-2.36.8-1.36 0-2.35-.8-.99-.81-.99-2.05m31.62-67.95h-24.93v37.2h24.93q20.33 0 20.33-18.6t-20.33-18.6m86.79-5.83h10.78q3.23 0 3.23 2.98v48.85q0 11.41-8.62 18.11-8.62 6.69-21.27 6.69-12.64 0-20.83-6.94-8.18-6.94-8.18-17.86v-46h-7.32q-1.24 0-2.04-.81-.81-.8-.81-2.04t.81-2.11q.8-.87 2.04-.87h10.79q1.24 0 2.23.87t.99 2.11v48.85q0 8.44 6.33 13.71 6.32 5.27 16.37 5.27 10.04 0 16.43-5.27 6.38-5.27 6.38-13.71v-46h-7.31q-1.24 0-2.05-.81-.81-.8-.81-2.04t.81-2.11 2.05-.87m36.46 73.78v-67.95h-7.31q-1.24 0-2.05-.81-.81-.8-.81-2.04t.81-2.11 2.05-.87h38.93q27.03 0 27.03 24.37 0 24.36-27.03 24.36h-24.92v25.05q0 1.24-.99 2.05-1 .8-2.36.8t-2.36-.8q-.99-.81-.99-2.05m31.62-67.95h-24.92v37.2h24.92q20.34 0 20.34-18.6t-20.34-18.6"/><path fill="none" stroke="#fff" stroke-width="1.05" d="M766.927 631.682a109.453 109.453 0 1 0 0 218.906 109.453 109.453 0 1 0 0-218.906Z"/><rect width="61.73" height="316.4" x="336.042" y="210.065" fill="none" rx="0" ry="0" transform="translate(400.5 308.1)"/><path fill="#fff" d="M748.927 769.365q-11.48 0-11.48-13.44 0-10.08 5.04-23.52-.28-1.4-.42-2.94t-.14-3.22q0-14.84 14.28-15.96 3.64-4.48 6.72-4.48 5.04 0 5.04 2.8 0 .84-.84 1.68l-.84.84q6.44 1.96 10.64 7.28t4.2 11.48q0 10.92-5.88 21.56l-.56.56q16.52-.56 26.6-10.92.84-.84 1.96-.84.84 0 .84 1.4t-1.68 2.8q-13.16 11.48-30.24 11.48-4.76 5.88-11.2 9.66t-12.04 3.78m20.16-17.64q6.16-11.48 6.16-22.12 0-6.44-3.08-10.92t-8.4-5.04q-8.4 9.24-13.44 21.56 3.36 14.56 18.76 16.52m-16.24 12.6q7.84 0 14-8.68-12.88-1.68-19.6-10.64-.56 2.8-.98 5.32t-.42 4.48q0 9.52 7 9.52"/></g><path fill="transparent" stroke="transparent" stroke-width="1.786" d="M250 302.679h1000v894.642H250z"/></g></svg>