<svg width="48" height="48" viewBox="0 0 48 48" fill="none" xmlns="http://www.w3.org/2000/svg">
<circle cx="24" cy="24" r="23" fill="white" stroke="#F7F9FB" stroke-width="2"/>
<path fill-rule="evenodd" clip-rule="evenodd" d="M19.3488 34.4804C19.6938 34.4804 19.946 34.5535 20.1052 34.6997C20.2644 34.8458 20.3442 35.0731 20.3443 35.3816V37.0348H19.8268V35.4515C19.8268 35.1029 19.6313 34.9286 19.2404 34.9286C19.0715 34.9272 18.9058 34.9738 18.7624 35.0631C18.7872 35.1674 18.7989 35.2744 18.7971 35.3816V37.0348H18.2796V35.4515C18.2796 35.1029 18.0841 34.9286 17.6932 34.9286C17.5148 34.9287 17.3379 34.9608 17.1708 35.0233V37.0348H16.6535V34.7395C16.8248 34.6543 17.0061 34.5911 17.1931 34.5512C17.3926 34.5047 17.5967 34.4805 17.8016 34.4791C18.1244 34.4791 18.3642 34.5419 18.5211 34.6674C18.7795 34.5439 19.0624 34.48 19.3488 34.4804ZM22.1175 37.1106C21.723 37.1106 21.4265 36.9977 21.228 36.772C21.0295 36.5462 20.9301 36.2176 20.9299 35.7861C20.9299 34.913 21.3244 34.4765 22.1135 34.4767C22.5111 34.4767 22.81 34.5887 23.0103 34.8126C23.2106 35.0366 23.3109 35.3611 23.311 35.7861C23.311 36.2108 23.2076 36.5377 23.0006 36.7669C22.7937 36.996 22.4993 37.1106 22.1175 37.1106ZM22.1124 36.6673C22.5659 36.6673 22.7926 36.3736 22.7924 35.7861C22.7924 35.494 22.7386 35.2758 22.631 35.1314C22.5234 34.987 22.3509 34.9148 22.1135 34.9146C21.8737 34.9146 21.7021 34.9885 21.5986 35.1362C21.4952 35.284 21.4434 35.5006 21.4434 35.7861C21.4434 36.0714 21.4968 36.2897 21.6035 36.4408C21.7102 36.592 21.8798 36.6672 22.1124 36.6663V36.6673ZM25.0388 34.4815C25.4067 34.4815 25.686 34.5927 25.8764 34.8151C26.0668 35.0374 26.1623 35.3524 26.1629 35.76C26.1629 36.2514 26.0487 36.5991 25.8204 36.8032C25.5922 37.0072 25.302 37.1097 24.95 37.1106C24.2436 37.1106 23.8904 36.9214 23.8904 36.5431V33.5344H24.4031V34.6359C24.5062 34.5867 24.6145 34.549 24.7259 34.5237C24.8282 34.4975 24.9332 34.483 25.0388 34.4804V34.4815ZM24.9105 36.6574C25.1794 36.6574 25.3677 36.5794 25.4753 36.4234C25.5829 36.2673 25.6367 36.0532 25.6367 35.781C25.6367 35.5023 25.5801 35.2899 25.4667 35.1438C25.3534 34.9976 25.1851 34.9246 24.9618 34.9248C24.8646 34.9255 24.7677 34.9379 24.6735 34.9619C24.5791 34.9847 24.4885 35.021 24.4045 35.0695V36.4145C24.4036 36.5759 24.5722 36.6565 24.9105 36.6563V36.6574ZM26.7477 33.6649H27.2996V34.138H26.7477V33.6649ZM26.7625 34.5512H27.28L27.2848 37.0359H26.7625V34.5512ZM28.0133 37.0359V33.5893H28.526V37.0348L28.0133 37.0359ZM30.2596 34.4745C30.6441 34.4745 30.9258 34.6001 31.1048 34.8511C31.2837 35.1022 31.3716 35.4532 31.3684 35.9042H29.6329C29.6495 36.1499 29.7213 36.3367 29.848 36.4645C29.9748 36.5924 30.1547 36.6562 30.3876 36.656C30.6667 36.6563 30.9413 36.5861 31.186 36.4519V36.9398C30.9297 37.0537 30.6362 37.1106 30.3053 37.1106C29.9341 37.1106 29.6425 36.9969 29.4306 36.7696C29.2186 36.5422 29.1127 36.2194 29.1129 35.8012C29.1129 35.373 29.213 35.0452 29.4134 34.818C29.6137 34.5908 29.8957 34.4763 30.2596 34.4745ZM30.2448 34.9049C30.0707 34.9049 29.9344 34.9514 29.8359 35.0445C29.7375 35.1376 29.6734 35.2952 29.6436 35.5174H30.8412C30.818 35.3049 30.7588 35.1498 30.6636 35.052C30.5684 34.9543 30.4288 34.9053 30.2448 34.9049ZM25.3021 14.4202C24.7313 14.2791 24.292 14.2084 23.984 14.2082C21.6871 14.2082 19.8249 16.0643 19.8249 18.3531C19.8249 20.6419 21.6879 22.4982 23.984 22.4982C26.2802 22.4982 28.1435 20.6422 28.1435 18.3531C28.1436 18.0187 28.1033 17.6855 28.0235 17.3608L31.3302 16.4702C31.598 17.4885 31.6487 18.5518 31.4789 19.591C31.309 20.6301 30.9225 21.622 30.3443 22.502L24.8688 32.6535H19.7961L23.4006 26.0094C23.4202 25.9728 23.3624 25.8921 23.314 25.8878C19.4623 25.5381 16.4453 22.3102 16.4453 18.3805C16.4453 14.2168 19.8319 10.8418 24.0099 10.8418C24.7747 10.841 25.5352 10.9559 26.2656 11.1826L25.3021 14.4202Z" fill="#006E53"/>
<path d="M23.9574 20.6326C25.2165 20.6326 26.2371 19.612 26.2371 18.3529C26.2371 17.0939 25.2165 16.0732 23.9574 16.0732C22.6984 16.0732 21.6777 17.0939 21.6777 18.3529C21.6777 19.612 22.6984 20.6326 23.9574 20.6326Z" fill="#D6E806"/>
<path d="M27.8965 16.7983C27.5016 15.8097 26.7403 15.0116 25.7715 14.5703M29.3474 16.1764C28.7897 14.8052 27.735 13.695 26.3942 13.0677M30.7465 15.7103C30.036 13.9026 28.6388 12.4496 26.8604 11.6689" stroke="#D6E806" stroke-width="2" stroke-linecap="round"/>
</svg>
