<svg width="48" height="48" viewBox="0 0 48 48" fill="none" xmlns="http://www.w3.org/2000/svg">
<circle cx="24" cy="24" r="23" fill="#E20010" stroke="#F7F9FB" stroke-width="2"/>
<path d="M27.1825 10.8418C28.0764 10.8542 28.9292 11.0238 29.7256 11.4289C30.4277 11.7883 31.0002 12.2909 31.3909 12.9835C31.6449 13.4408 31.8114 13.9413 31.8821 14.4596C32.0274 15.4544 31.8805 16.4169 31.5524 17.358C31.3596 17.9099 31.0928 18.4276 30.8038 18.9361C30.2151 19.9712 29.4587 20.8683 28.5789 21.6636C27.4502 22.6849 26.2124 23.5788 24.888 24.3292C24.3749 24.6189 23.8429 24.8622 23.2707 25.011C22.9201 25.1057 22.5582 25.1515 22.1951 25.1471C21.7171 25.1374 21.3431 24.9198 21.0523 24.553C20.7837 24.2239 20.6453 23.8076 20.6634 23.3832C20.6666 23.2651 20.6836 23.1479 20.7142 23.0338C20.8873 22.4189 21.1225 21.8299 21.4741 21.2928C21.7428 20.8826 22.063 20.5183 22.4819 20.2577C22.9477 19.9677 23.454 19.8437 24.0017 19.9634C24.1729 20.0035 24.334 20.0784 24.4751 20.1834C24.8356 20.4411 24.8167 20.8453 24.6436 21.1035C24.4953 21.3278 24.3295 21.5401 24.1478 21.7384C23.8399 22.07 23.5129 22.3835 23.1937 22.7043C22.9112 22.9881 22.6458 23.286 22.4306 23.6254C22.319 23.8015 22.2162 23.9811 22.1854 24.1925C22.1465 24.4577 22.2842 24.6384 22.5518 24.6632C22.6903 24.6745 22.8296 24.6605 22.9631 24.6219C23.3744 24.5082 23.7562 24.3249 24.1313 24.1272C24.7097 23.8212 25.2436 23.4472 25.764 23.0527C26.3948 22.5744 27.0081 22.0757 27.5733 21.521C28.2171 20.8899 28.7909 20.204 29.23 19.4125C29.5508 18.8346 29.7871 18.2243 29.8922 17.5697C29.9851 16.9931 29.9332 16.4314 29.6661 15.9022C29.5375 15.6405 29.3364 15.4215 29.0866 15.2711C28.9713 15.2017 28.8441 15.1542 28.7115 15.1312C28.229 15.0456 27.7621 15.1158 27.3033 15.2689C26.825 15.4288 26.3813 15.6621 25.9501 15.917C25.0141 16.4722 24.077 17.0272 23.1851 17.6523C22.7379 17.9656 22.3045 18.2988 21.8662 18.6245C21.4703 18.9188 21.0771 19.2167 20.6445 19.4573C20.2934 19.6572 19.9134 19.8014 19.5181 19.8848C19.0283 19.9842 18.5768 19.8918 18.162 19.6255C17.7315 19.3493 17.4301 18.9701 17.2978 18.4684C17.2136 18.1516 17.2468 17.8376 17.3194 17.5249C17.4256 17.0658 17.627 16.6499 17.8782 16.2557C18.4993 15.2819 19.2802 14.4558 20.1884 13.7496C21.5343 12.7032 23.0152 11.8974 24.6171 11.3144C25.4396 11.0135 26.3069 10.8538 27.1825 10.8418Z" fill="white"/>
<path d="M16.1095 33.105C16.1049 32.7993 16.0701 32.5244 15.8935 32.286C15.8075 32.1708 15.6884 32.0845 15.5521 32.0386C15.2011 31.9128 14.8435 31.9276 14.4949 32.0354C14.2154 32.1218 13.9459 32.2395 13.6723 32.3446C13.6183 32.3646 13.5692 32.3902 13.5038 32.4194C13.375 32.0999 13.2484 31.7899 13.1158 31.4659C13.3078 31.3749 13.4887 31.282 13.6753 31.2023C14.1052 31.0184 14.5511 30.8923 15.0199 30.8639C15.4887 30.8356 15.9512 30.8604 16.3779 31.0878C16.8605 31.3433 17.2088 31.7121 17.3547 32.249C17.3757 32.3193 17.3883 32.3918 17.3922 32.465C17.4108 33.162 17.436 33.859 17.4389 34.556C17.4408 35.0323 17.4095 35.509 17.3954 35.9856C17.3929 36.051 17.3657 36.1129 17.3193 36.159C16.9858 36.5262 16.5778 36.7801 16.1154 36.9505C15.6197 37.1314 15.0917 37.2072 14.5651 37.1733C14.079 37.1463 13.6594 36.9472 13.3045 36.617C12.9497 36.2867 12.7018 35.8878 12.6327 35.3991C12.5382 34.7296 12.7312 34.1488 13.2125 33.6708C13.5219 33.3635 13.9032 33.2047 14.3329 33.1485C14.8081 33.0867 15.285 33.1031 15.7619 33.1045L16.1095 33.105ZM16.0471 34.1933C16.0191 34.1878 15.9908 34.1839 15.9623 34.1817C15.8003 34.1785 15.6364 34.1728 15.4735 34.1752C15.2783 34.1782 15.0822 34.179 14.8881 34.1974C14.6874 34.2165 14.4927 34.2751 14.3372 34.4091C14.079 34.6316 14.0023 34.9222 14.0653 35.2497C14.1436 35.6548 14.3699 35.9378 14.7733 36.0582C14.9813 36.1205 15.2016 36.1297 15.4141 36.0852C15.6117 36.0491 15.7959 35.9607 15.9477 35.8292C15.9734 35.8093 15.9946 35.7841 16.0097 35.7553C16.0248 35.7265 16.0336 35.6948 16.0355 35.6624C16.0417 35.52 16.0601 35.378 16.0612 35.2357C16.0633 34.9097 16.0585 34.5838 16.0558 34.2579C16.0541 34.2362 16.0513 34.2146 16.0471 34.1933Z" fill="white"/>
<path d="M32.3515 34.1655C31.193 34.1655 30.0561 34.1406 28.9033 34.1709C28.9093 34.2519 28.9128 34.3286 28.9201 34.4034C28.9498 34.7093 29.0157 35.0066 29.145 35.2872C29.2456 35.5161 29.4017 35.7162 29.5992 35.8694C29.9125 36.1073 30.27 36.1462 30.6451 36.0979C30.9551 36.0579 31.2438 35.9445 31.5317 35.8303C31.6637 35.7782 31.7947 35.7223 31.9367 35.6642C32.0718 35.9467 32.2041 36.2243 32.3418 36.51C32.3164 36.5283 32.2927 36.5489 32.2662 36.564C31.7045 36.8972 31.1012 37.1119 30.4496 37.1686C29.8555 37.2202 29.2884 37.1227 28.7753 36.7941C28.4259 36.5702 28.1812 36.254 27.9765 35.9002C27.7244 35.4601 27.5718 34.9701 27.5293 34.4647C27.4436 33.5431 27.6393 32.6851 28.1164 31.8906C28.4491 31.3384 28.9457 31.0383 29.5674 30.9349C30.1388 30.8344 30.7274 30.9324 31.2354 31.2125C31.5201 31.3667 31.7183 31.6095 31.8816 31.8817C32.0977 32.2406 32.2114 32.6362 32.2659 33.0461C32.3102 33.3767 32.3242 33.7112 32.3507 34.0453C32.354 34.0796 32.3515 34.1152 32.3515 34.1655ZM30.9473 33.1163C30.8801 32.8082 30.8341 32.4933 30.6324 32.2322C30.5313 32.1024 30.3892 32.0107 30.2292 31.9719C29.8039 31.8593 29.3764 32.0553 29.1936 32.458C29.1283 32.6014 29.0899 32.7572 29.0424 32.9081C29.0211 32.9764 29.0073 33.0475 28.9903 33.1163C29.1045 33.1466 30.8304 33.1479 30.9478 33.1171L30.9473 33.1163Z" fill="white"/>
<path d="M24.7527 29.46L26.1351 29.2461V30.9439C26.4418 30.9622 26.734 30.9422 27.0278 30.9738V32.0197C26.7308 32.0246 26.44 32.0157 26.1367 32.034C26.1367 32.0929 26.1367 32.1369 26.1367 32.1809C26.1342 33.1877 26.132 34.1945 26.1302 35.2014C26.1302 35.3599 26.1429 35.5187 26.1572 35.6767C26.1799 35.9197 26.3147 36.0739 26.5501 36.133C26.68 36.166 26.8134 36.1846 26.9452 36.2097L27.0775 36.2367V37.1244C27.0627 37.1317 27.0468 37.137 27.0305 37.14C26.6382 37.1576 26.2474 37.1473 25.868 37.032C25.4975 36.9202 25.1886 36.7177 24.979 36.3839C24.8599 36.1949 24.7994 35.9824 24.7732 35.7628C24.7574 35.6253 24.7496 35.487 24.75 35.3486C24.75 33.4366 24.7511 31.5249 24.7533 29.6134L24.7527 29.46Z" fill="white"/>
<path d="M33.1117 29.4612L34.4484 29.2295V29.4139C34.4484 31.1503 34.4491 32.8867 34.4506 34.6231C34.4506 34.9409 34.4533 35.2588 34.4557 35.5769C34.4579 35.8907 34.5723 36.0505 34.8721 36.144C34.974 36.1721 35.0774 36.1943 35.1818 36.2104C35.2456 36.2223 35.3101 36.228 35.3876 36.2374V37.1442C35.3804 37.1502 35.3719 37.1544 35.3628 37.1564C34.9831 37.1718 34.605 37.1656 34.2359 37.0575C34.0122 36.9932 33.8039 36.884 33.6237 36.7367C33.288 36.4621 33.1514 36.094 33.1163 35.679C33.106 35.5574 33.1074 35.4346 33.1076 35.3125C33.1076 33.413 33.109 31.5137 33.1117 29.6146V29.4612Z" fill="white"/>
<path d="M22.0649 37.0638H20.7147C20.7131 37.0073 20.7104 36.9558 20.7101 36.9047C20.7087 36.0935 20.7075 35.2823 20.7066 34.4711C20.705 33.823 20.7009 33.1749 20.7012 32.5268C20.7016 32.4092 20.7106 32.2919 20.7282 32.1757C20.7482 32.0431 20.8176 31.9327 20.914 31.8395C21.4443 31.3232 22.0798 31.0137 22.8043 30.8803C23.2584 30.797 23.7237 30.7964 24.178 30.8784C24.202 30.8827 24.2261 30.8881 24.2496 30.8941C24.2612 30.8971 24.2723 30.9027 24.2947 30.9114C24.1413 31.3013 23.9544 31.674 23.7783 32.0423C23.568 32.0423 23.3687 32.0361 23.1699 32.0437C22.8267 32.0551 22.4898 32.139 22.1813 32.2899C22.0938 32.3329 22.0611 32.3863 22.0614 32.4871C22.0652 33.9633 22.0661 35.4396 22.0641 36.9158L22.0649 37.0638Z" fill="white"/>
<path d="M19.7179 31.001C19.7322 33.0242 19.7165 35.0354 19.7295 37.0592H18.4082C18.4049 37.0103 18.3984 36.9592 18.3984 36.9082C18.3984 35.6363 18.3984 34.3642 18.3984 33.0919C18.3984 32.5089 18.4033 31.9259 18.4057 31.3429C18.4057 31.2986 18.4057 31.2543 18.4057 31.1986L19.7179 31.001Z" fill="white"/>
<path d="M19.002 30.4062C18.3568 30.4046 17.9529 29.7624 18.2205 29.1562C18.3849 28.7843 18.6674 28.6431 19.0749 28.6455C19.6209 28.6501 20.0257 29.1932 19.8956 29.7238C19.7916 30.1478 19.4513 30.4073 19.002 30.4062Z" fill="white"/>
</svg>
