<svg width="48" height="48" viewBox="0 0 48 48" fill="none" xmlns="http://www.w3.org/2000/svg">
<path d="M23.9722 46.5235C36.3703 46.5235 46.4209 36.4728 46.4209 24.0747C46.4209 11.6766 36.3703 1.62598 23.9722 1.62598C11.5741 1.62598 1.52344 11.6766 1.52344 24.0747C1.52344 36.4728 11.5741 46.5235 23.9722 46.5235Z" fill="#50B651"/>
<path opacity="0.663" fill-rule="evenodd" clip-rule="evenodd" d="M46.3519 24.0118C46.3519 36.4488 36.2698 46.5309 23.8355 46.5309C11.4013 46.5309 1.31641 36.4488 1.31641 24.0118C1.31641 18.5101 1.47061 17.6921 3.6362 14.5599C3.6362 14.5599 3.52446 18.0977 6.11859 20.203C7.73161 21.5109 9.41503 20.5667 12.4964 19.1476C15.8297 17.6111 18.5395 16.6199 20.6536 16.8814C23.8383 17.2759 33.6545 23.1709 38.7773 21.997C42.87 21.0612 42.4381 11.4121 42.4381 11.4121C46.9078 15.7768 46.3519 18.7269 46.3519 24.0118Z" fill="url(#paint0_linear_4_178750)"/>
<path opacity="0.586" fill-rule="evenodd" clip-rule="evenodd" d="M33.5 40.5532C41.6442 32.8924 42.998 24.116 37.5613 14.2241C37.5889 14.2442 37.9252 13.0836 38.5704 10.7422C41.4638 14.2461 43.0023 18.5709 43.1859 23.7167C43.1844 30.3819 39.9558 35.994 33.5 40.5532Z" fill="url(#paint1_linear_4_178750)"/>
<path opacity="0.744" fill-rule="evenodd" clip-rule="evenodd" d="M29.6358 10.7885C25.7047 8.61282 21.1947 4.23638 21.7942 3.31729C22.3937 2.39819 30.175 2.55631 34.1067 4.73196C38.0384 6.90761 41.3845 13.434 40.7856 14.3531C40.1866 15.2722 33.567 12.9641 29.6358 10.7885Z" fill="url(#paint2_radial_4_178750)"/>
<path fill-rule="evenodd" clip-rule="evenodd" d="M33.0613 29.604C29.8001 29.604 27.1562 26.8847 27.1562 23.5307C27.1562 20.1767 29.8001 17.458 33.0613 17.458C36.3226 17.458 38.967 20.1767 38.967 23.5307C38.967 26.8847 36.3231 29.604 33.0613 29.604ZM33.1032 27.6775C35.1387 27.6775 36.7908 25.8209 36.7908 23.5307C36.7908 21.2405 35.1387 19.3856 33.1032 19.3856C31.0678 19.3856 29.4157 21.2422 29.4157 23.5318C29.4157 25.8215 31.0678 27.6775 33.1032 27.6775Z" fill="white"/>
<path fill-rule="evenodd" clip-rule="evenodd" d="M20.875 12.5664H25.1302V29.5347H22.7942V14.4275H20.875V12.5664Z" fill="white"/>
<path fill-rule="evenodd" clip-rule="evenodd" d="M17.7067 17.6305H19.9154V31.8007C19.9154 33.0919 18.5571 34.4367 17.2335 35.0156C16.6077 35.2889 15.4531 35.4513 13.7695 35.5028V34.0931C15.4162 33.9095 16.5277 33.5431 17.1039 32.9941C17.4364 32.532 17.6442 31.9921 17.7073 31.4263V27.2633C17.1169 28.516 16.3735 29.3464 15.4769 29.7547C14.545 30.2575 12.6481 30.1748 11.8737 29.7547C11.0993 29.3345 9.96347 28.2282 9.44274 26.5806C9.29859 26.1258 8.9399 24.8882 8.97733 23.5769C9.01085 22.3282 9.4243 21.0068 9.76792 20.4637C10.3579 19.5363 11.2882 18.3747 12.6973 17.8892C13.3856 17.6519 14.6614 17.5666 16.5245 17.6333V19.0351C15.14 18.9416 14.2762 18.9883 13.9332 19.1753C13.4186 19.4547 12.257 19.7994 11.8737 22.331C11.4904 24.8625 11.8849 26.9342 13.1001 27.5829C13.5164 27.8064 14.2527 28.0707 14.9333 27.8377C16.2407 27.3907 17.471 25.7967 17.5648 24.7167C17.6594 23.6209 17.7067 21.2588 17.7067 17.6305Z" fill="white"/>
<path fill-rule="evenodd" clip-rule="evenodd" d="M45.6464 28.519C43.5607 38.562 34.6614 46.108 24.0005 46.108C11.7908 46.108 1.89258 36.2098 1.89258 24.0001C1.89258 16.415 5.71253 9.72208 11.5333 5.74121C6.80371 9.66341 3.79222 15.5886 3.79222 22.2145C3.79222 34.033 13.3731 43.6134 25.1911 43.6134C34.8156 43.6134 42.955 37.2602 45.6464 28.519Z" fill="url(#paint3_radial_4_178750)"/>
<circle cx="24" cy="24" r="23" stroke="#F7F9FB" stroke-width="2"/>
<defs>
<linearGradient id="paint0_linear_4_178750" x1="22.9656" y1="14.4873" x2="25.852" y2="40.5532" gradientUnits="userSpaceOnUse">
<stop stop-color="#123214"/>
<stop offset="0.46" stop-color="#3E7C37"/>
<stop offset="0.91" stop-color="#5FBB46"/>
</linearGradient>
<linearGradient id="paint1_linear_4_178750" x1="39.6417" y1="12.7934" x2="39.6417" y2="33.8713" gradientUnits="userSpaceOnUse">
<stop stop-color="white" stop-opacity="0"/>
<stop offset="0.64" stop-color="white" stop-opacity="0.43"/>
<stop offset="1" stop-color="white" stop-opacity="0.42"/>
</linearGradient>
<radialGradient id="paint2_radial_4_178750" cx="0" cy="0" r="1" gradientUnits="userSpaceOnUse" gradientTransform="translate(31.7683 8.98286) rotate(26.7606) scale(11.093 4.62003)">
<stop offset="0.13" stop-color="white"/>
<stop offset="0.29" stop-color="white" stop-opacity="0.69"/>
<stop offset="0.45" stop-color="white" stop-opacity="0.4"/>
<stop offset="0.59" stop-color="white" stop-opacity="0.18"/>
<stop offset="0.69" stop-color="white" stop-opacity="0.05"/>
<stop offset="0.74" stop-color="white" stop-opacity="0"/>
</radialGradient>
<radialGradient id="paint3_radial_4_178750" cx="0" cy="0" r="1" gradientUnits="userSpaceOnUse" gradientTransform="translate(27.7915 18.9064) rotate(39.84) scale(24.8591 27.0964)">
<stop offset="0.86" stop-opacity="0"/>
<stop offset="0.98" stop-opacity="0.47"/>
<stop offset="1"/>
</radialGradient>
</defs>
</svg>
